<?xml version="1.0" standalone="no"?>
<!DOCTYPE svg PUBLIC "-//W3C//DTD SVG 20010904//EN"
 "http://www.w3.org/TR/2001/REC-SVG-20010904/DTD/svg10.dtd">
<svg version="1.0" xmlns="http://www.w3.org/2000/svg"
 width="346.000000pt" height="346.000000pt" viewBox="0 0 346.000000 346.000000"
 preserveAspectRatio="xMidYMid meet">
<metadata>
Created by potrace 1.15, written by Peter Selinger 2001-2017
</metadata>
<g transform="translate(0.000000,346.000000) scale(0.100000,-0.100000)"
fill="#000000" stroke="none">
<path d="M1540 2594 c-100 -27 -185 -90 -308 -229 l-71 -81 -92 -17 c-103 -20
-186 -49 -222 -77 -61 -48 -30 -101 76 -126 l67 -17 -27 -36 c-15 -20 -53 -70
-85 -111 l-58 -75 -62 0 c-52 0 -63 -3 -66 -18 -2 -12 8 -22 37 -35 l41 -17
-64 -70 c-34 -38 -63 -77 -64 -85 -1 -8 -4 -29 -8 -47 -5 -28 -2 -34 27 -52
19 -11 57 -25 86 -31 36 -8 51 -15 46 -23 -4 -7 -43 -60 -87 -120 -52 -69 -85
-106 -94 -102 -8 3 -31 8 -53 11 -31 5 -40 3 -45 -11 -8 -19 8 -33 49 -42 31
-6 34 -15 12 -33 -31 -26 -117 -131 -112 -136 10 -10 34 10 98 85 l64 73 80
-6 c115 -10 252 9 374 50 202 67 351 168 366 246 11 59 -10 88 -122 164 -13 9
-9 15 27 42 24 17 48 29 54 25 6 -3 8 -3 4 2 -4 4 17 35 47 67 56 60 95 124
95 154 0 9 18 38 40 64 33 40 40 55 40 92 0 37 -5 49 -34 77 -19 18 -51 43
-71 55 l-36 22 39 28 c58 40 156 145 181 193 35 69 28 124 -20 148 -35 18 -78
18 -149 -1z m116 -47 c57 -49 29 -113 -102 -235 l-84 -79 -91 23 c-50 13 -109
24 -130 24 -21 0 -39 3 -39 6 0 11 105 135 147 175 106 101 237 139 299 86z
m-532 -319 c-5 -7 -28 -39 -52 -70 -48 -64 -57 -67 -140 -43 -61 19 -88 41
-72 61 31 36 285 86 264 52z m187 -4 c41 -9 78 -20 82 -24 16 -14 -173 -78
-283 -95 l-44 -7 25 33 c14 19 38 51 53 72 33 43 53 46 167 21z m167 -53 c20
-11 52 -33 70 -50 36 -34 41 -65 17 -112 l-16 -29 -29 21 c-25 19 -38 21 -99
17 -98 -7 -179 -48 -280 -144 l-80 -75 -106 3 -107 3 87 115 c48 63 91 118 94
122 4 4 51 19 106 33 105 26 206 63 265 95 43 24 34 23 78 1z m-6 -219 l21
-20 -52 -26 c-104 -53 -321 -113 -321 -89 0 11 51 60 102 97 88 66 205 83 250
38z m-10 -125 c-35 -51 -167 -177 -185 -177 -6 0 -46 9 -87 20 -41 11 -88 20
-105 20 -16 0 -37 5 -45 10 -12 8 -11 13 8 33 16 16 42 27 90 36 84 15 252 73
306 105 53 31 59 14 18 -47z m-458 -102 c-18 -28 -22 -29 -124 -45 -41 -7 -97
-21 -125 -31 -27 -11 -51 -19 -53 -19 -2 0 21 27 50 60 l53 60 108 0 107 0
-16 -25z m-64 -80 c0 -3 -23 -35 -52 -71 -48 -60 -54 -64 -83 -59 -67 14 -102
25 -120 39 -20 15 -20 15 0 35 29 29 255 78 255 56z m193 -12 c42 -10 77 -21
77 -25 0 -14 -190 -75 -288 -92 -40 -7 -40 -7 18 72 52 71 63 74 193 45z m184
-65 c44 -26 83 -75 83 -102 0 -66 -115 -152 -273 -204 -114 -38 -231 -54 -365
-50 l-103 3 82 105 c44 58 87 113 94 123 8 12 43 25 97 37 85 19 214 65 278
100 38 21 57 18 107 -12z"/>
<path d="M1624 1978 c-80 -74 -99 -147 -47 -188 35 -27 81 -22 168 19 72 34
225 147 225 167 0 8 -2 14 -5 14 -3 0 -37 -25 -77 -56 -135 -104 -242 -143
-275 -99 -15 22 -17 21 67 79 50 34 69 68 50 91 -22 26 -58 17 -106 -27z"/>
<path d="M2745 1876 c-136 -64 -392 -363 -448 -523 -18 -50 -23 -55 -82 -83
-139 -66 -181 -16 -64 77 47 37 94 43 115 16 11 -15 15 -16 23 -4 24 37 -26
61 -89 42 -21 -6 -76 -40 -122 -74 -106 -78 -161 -105 -183 -87 -23 19 -18 53
15 98 31 43 37 62 21 62 -5 0 -47 -28 -93 -63 -136 -102 -244 -140 -272 -95
-9 14 -3 25 31 60 71 75 76 108 15 108 -28 0 -33 3 -24 12 7 7 12 20 12 30 0
23 -42 24 -61 2 -7 -9 -23 -20 -36 -25 -18 -7 -23 -16 -23 -42 0 -30 -7 -39
-57 -74 -32 -22 -73 -48 -90 -57 -35 -18 -43 -36 -16 -36 21 0 96 43 149 86
26 21 58 36 85 40 l44 7 -31 -34 c-50 -54 -58 -76 -40 -105 9 -13 27 -26 40
-30 46 -11 170 37 235 92 l32 27 -7 -27 c-5 -21 -1 -33 17 -52 30 -32 90 -33
143 0 l40 24 20 -25 c17 -23 24 -25 69 -20 28 4 74 20 105 38 52 29 57 30 67
14 33 -57 52 -70 103 -69 32 0 68 9 100 25 l50 25 20 -23 c31 -35 91 -31 177
11 70 33 225 149 225 167 0 13 -9 7 -95 -57 -70 -52 -186 -114 -215 -114 -21
0 -60 28 -60 43 0 7 23 27 51 46 67 46 92 77 78 102 -5 11 -20 19 -35 19 -32
0 -108 -70 -131 -122 -12 -26 -30 -46 -53 -58 -55 -28 -109 -40 -135 -30 -27
10 -62 68 -48 80 4 4 46 35 93 70 256 191 453 397 453 475 0 58 -40 68 -118
31z m72 -22 c16 -42 -106 -208 -229 -311 -109 -92 -263 -212 -267 -208 -7 8
51 120 101 193 62 90 232 270 296 312 50 33 89 39 99 14z"/>
</g>
</svg>
